<!--?xml version="1.0" standalone="no"?-->              <svg id="sw-js-blob-svg" viewBox="0 0 100 100" xmlns="http://www.w3.org/2000/svg">                    <defs>                         <linearGradient id="sw-gradient" x1="0" x2="1" y1="1" y2="0">                            <stop id="stop1" stop-color="rgba(248, 113, 113, 1)" offset="0%"></stop>                            <stop id="stop2" stop-color="rgba(250, 204, 21, 1)" offset="100%"></stop>                        </linearGradient>                    </defs>                <path fill="url(#sw-gradient)" d="M15.5,-20.5C19.6,-15,22.3,-9.7,20,-6C17.8,-2.3,10.6,-0.1,8.2,5.4C5.8,10.9,8.1,19.8,6.5,22.5C4.8,25.2,-0.9,21.6,-9.8,20.9C-18.7,20.3,-30.8,22.5,-31.1,19.3C-31.5,16,-20,7.3,-15.1,0.5C-10.1,-6.3,-11.7,-11.1,-10.3,-17.1C-8.9,-23.1,-4.4,-30.3,0.6,-31.1C5.7,-31.8,11.3,-26,15.5,-20.5Z" width="100%" height="100%" transform="translate(50 50)" stroke-width="0" style="transition: 0.3s;"></path>              </svg>