<?xml version="1.0" encoding="UTF-8"?>
<svg id="AI_Image_Image" data-name="AI_Image Image" xmlns="http://www.w3.org/2000/svg" viewBox="0 0 850.99 856.08">
  <defs>
    <style>
      .cls-1 {
        fill: #fff;
      }
    </style>
  </defs>
  <path class="cls-1" d="M521.08,200.74c115.64,46.62,184.35,191.87,134.09,308.46-4.47,8.58-10.82,15.77-17.36,22.51-6.88,6.96-13.63,16.42-12.1,26.47,1.44,10.37,8.78,18.85,15.85,26.31,15.52,15.98,35.25,27.5,56.04,34.6,33.72,11.59,74.64,11.88,102.39-12.86,33.17-30.2,41.69-82.61,47.77-125.17C886.3,158.14,573.64-88.36,269.44,30.3,88.66,101.6-26.32,300.52,5.19,492.69c7.3,51.56,24.62,121.72,84.87,132.01,41.08,7.56,88.44-9.53,118.31-38.91,8.97-9.2,18.77-20.96,17.15-33.98-1.66-11.08-10.47-17.91-17.9-26.68-3.71-4.3-7.09-8.9-9.92-13.85-12.7-23.55-16.38-50.79-17.46-77.31-5.55-176.57,177.98-302.55,340.66-233.31l.19.08h0Z"/>
  <path class="cls-1" d="M678.19,779.99c8.45-6.43,16.53-12.89,24.58-19.78,8.13-7.33,20.17-17.32,17.32-25.08-4.06-10.09-27.54-12.24-37.53-15.4-38.84-10.35-77.14-28.42-108.97-52.75-8.52-5.92-25.6-24.72-35.98-18.65-11.68,8.54.04,35.56,4.2,46.72,14.92,36.32,35.97,71.59,67.62,95.71,24.84,19.25,46.82,5.96,68.57-10.65l.18-.13h0Z"/>
  <path class="cls-1" d="M158.9,768.98c17.78,12.95,39.86,33.6,63.4,29.85,23.06-3.87,42.7-29.08,56.36-46.65,12.65-15.81,52.11-86.47,37.88-102.74-7.1-5.78-18.45,2.09-25.19,7-38.16,32.77-84.18,54.24-133.28,65.42-8.64,2.4-22.45,4.44-25.73,13.47-3.29,12.15,17.68,26.2,26.41,33.53l.16.12h0Z"/>
  <path class="cls-1" d="M456.25,855.32c13.22-.71,26.35-1.45,39.61-3.39,14.25-1.92,28.91-8.42,20.11-25.32-1.64-3.22-3.83-6.42-6.11-9.54-25.04-31.31-45.59-66.4-59.44-103.91-3.78-9.56-6.99-20.41-13.53-28.38-7.52-9.08-17-7.76-23.52,1.63-2.48,3.4-4.48,7.45-6.26,11.54-12.59,33.22-26.93,66.28-47.66,95.34-5.48,7.86-11.61,15.47-17.35,23.36-4.68,6.71-11.47,15.72-9.36,23.1,4.65,12.29,31.01,13.26,42.68,14.45,26.83,2.08,53.79,2.42,80.63,1.13h.2Z"/>
</svg>